<?xml version="1.0"?>
<svg xmlns="http://www.w3.org/2000/svg" xmlns:xlink="http://www.w3.org/1999/xlink" xmlns:svgjs="http://svgjs.com/svgjs" version="1.1" width="512" height="512" x="0" y="0" viewBox="0 0 511.633 511.633" style="enable-background:new 0 0 512 512" xml:space="preserve" class=""><g><g xmlns="http://www.w3.org/2000/svg"><path d="m502.271 426.338h-11.12v-183.643c0-4.143-3.357-7.5-7.5-7.5s-7.5 3.357-7.5 7.5v183.643h-374.523c-4.143 0-7.5 3.357-7.5 7.5s3.357 7.5 7.5 7.5h395.005v6.951c0 11.664-9.489 21.153-21.152 21.153h-439.329c-11.663 0-21.152-9.489-21.152-21.153v-6.951h54.666c4.143 0 7.5-3.357 7.5-7.5s-3.357-7.5-7.5-7.5h-34.184v-261.091c0-12.421 10.105-22.526 22.526-22.526h85.303c4.143 0 7.5-3.357 7.5-7.5s-3.357-7.5-7.5-7.5h-85.302c-20.692 0-37.526 16.834-37.526 37.526v261.091h-11.121c-5.162 0-9.362 4.2-9.362 9.363v12.588c0 19.935 16.218 36.153 36.152 36.153h439.328c19.935 0 36.152-16.219 36.152-36.153v-12.588c.001-5.163-4.199-9.363-9.361-9.363z" fill="#d3d8e3" data-original="#000000" style="" class=""/><path d="m369.321 142.721h84.303c12.421 0 22.526 10.104 22.526 22.525v45.486c0 4.143 3.357 7.5 7.5 7.5s7.5-3.357 7.5-7.5v-45.486c0-20.691-16.834-37.525-37.526-37.525h-84.303c-4.143 0-7.5 3.357-7.5 7.5s3.358 7.5 7.5 7.5z" fill="#d3d8e3" data-original="#000000" style="" class=""/><path d="m50.482 165.247v238.591c0 4.143 3.357 7.5 7.5 7.5h395.665c1.989 0 3.897-.79 5.304-2.197 1.406-1.406 2.196-3.314 2.196-5.304l-.023-238.617c0-4.142-3.358-7.499-7.501-7.499l-92.971.007c-4.142 0-7.499 3.358-7.499 7.501 0 4.142 3.358 7.499 7.501 7.499l85.471-.006.021 223.616h-380.664v-223.591l86.503-.006c4.143 0 7.5-3.358 7.5-7.5 0-4.143-3.358-7.5-7.501-7.5l-94.002.006c-4.142 0-7.5 3.358-7.5 7.5z" fill="#d3d8e3" data-original="#000000" style="" class=""/><path d="m256.316 210.551c50.553 0 91.68-41.127 91.68-91.68 0-14.619-3.362-28.619-9.995-41.612-1.883-3.688-6.398-5.152-10.09-3.27-3.688 1.883-5.153 6.4-3.27 10.09 5.544 10.86 8.354 22.566 8.354 34.792 0 42.281-34.398 76.68-76.68 76.68s-76.68-34.398-76.68-76.68 34.398-76.681 76.68-76.681c18.454 0 36.297 6.671 50.242 18.783 3.127 2.716 7.865 2.385 10.58-.744 2.717-3.127 2.384-7.864-.744-10.58-16.674-14.483-38.01-22.459-60.078-22.459-50.553 0-91.68 41.128-91.68 91.681s41.129 91.68 91.681 91.68z" fill="#d3d8e3" data-original="#000000" style="" class=""/><path d="m297.242 73.344c-3.851-3.848-10.116-3.844-13.969.002l-40.782 40.784-14.138-14.138c-3.851-3.848-10.116-3.845-13.969.003l-17.846 17.847c-1.868 1.865-2.896 4.348-2.896 6.987s1.028 5.122 2.894 6.985l30.045 30.044c4.248 4.25 9.898 6.591 15.909 6.591 6.009 0 11.659-2.34 15.911-6.59l56.689-56.691c1.868-1.865 2.896-4.348 2.896-6.987s-1.028-5.122-2.894-6.984zm-49.447 77.908c-1.417 1.417-3.302 2.197-5.305 2.197s-3.886-.78-5.302-2.197l-26.424-26.423 10.606-10.606 14.137 14.138c3.851 3.847 10.116 3.845 13.969-.002l40.782-40.784 10.606 10.606z" fill="#d3d8e3" data-original="#000000" style="" class=""/><path d="m182.452 372.196h147.729c9.823 0 17.815-7.992 17.815-17.816v-22.675c0-9.824-7.992-17.816-17.815-17.816h-100.47c-4.143 0-7.5 3.357-7.5 7.5s3.357 7.5 7.5 7.5h100.47c1.553 0 2.815 1.264 2.815 2.816v22.675c0 1.553-1.263 2.816-2.815 2.816h-147.729c-1.553 0-2.815-1.264-2.815-2.816v-22.675c0-1.553 1.263-2.816 2.815-2.816h15.297c4.143 0 7.5-3.357 7.5-7.5s-3.357-7.5-7.5-7.5h-15.297c-9.823 0-17.815 7.992-17.815 17.816v22.675c0 9.824 7.992 17.816 17.815 17.816z" fill="#d3d8e3" data-original="#000000" style="" class=""/><path d="m183.204 254.843c0-26.268-21.371-47.639-47.64-47.639-26.268 0-47.639 21.371-47.639 47.639s21.371 47.639 47.639 47.639c26.269-.001 47.64-21.372 47.64-47.639zm-47.64 32.638c-17.997 0-32.639-14.642-32.639-32.639s14.642-32.639 32.639-32.639 32.64 14.642 32.64 32.639-14.642 32.639-32.64 32.639z" fill="#d3d8e3" data-original="#000000" style="" class=""/><path d="m213.73 250.195h11.619c4.143 0 7.5-3.357 7.5-7.5s-3.357-7.5-7.5-7.5h-11.619c-4.143 0-7.5 3.357-7.5 7.5s3.358 7.5 7.5 7.5z" fill="#d3d8e3" data-original="#000000" style="" class=""/><path d="m409.143 235.195h-153.329c-4.143 0-7.5 3.357-7.5 7.5s3.357 7.5 7.5 7.5h153.328c4.143 0 7.5-3.357 7.5-7.5s-3.357-7.5-7.499-7.5z" fill="#d3d8e3" data-original="#000000" style="" class=""/><path d="m416.643 273.855c0-4.143-3.357-7.5-7.5-7.5h-195.413c-4.143 0-7.5 3.357-7.5 7.5s3.357 7.5 7.5 7.5h195.412c4.143 0 7.501-3.357 7.501-7.5z" fill="#d3d8e3" data-original="#000000" style="" class=""/></g></g></svg>
