<?xml version="1.0"?>
<svg xmlns="http://www.w3.org/2000/svg" id="Capa_1" enable-background="new 0 0 512 512" height="512px" viewBox="0 0 512 512" width="512px"><g><g><path d="m181 301h91v90h-91z" data-original="#000000" class="active-path" data-old_color="#000000" fill="#EE204D"/><path d="m452 271h30v-30h-30v-166c0-41.353-33.647-75-75-75s-75 33.647-75 75v16h-30v30h90v-30h-30v-16c0-24.814 20.186-45 45-45s45 20.186 45 45v226h-120v120h-151v-120h-151v30h15c8.276 0 15 6.724 15 15 0 58.588 38.734 109.071 91 127.707v38.293h30v-31.516c4.99.562 9.864 1.516 15 1.516h181c5.136 0 10.01-.954 15-1.516v31.516h30v-38.293c52.266-18.636 90-69.119 90-127.707 0-8.276 6.724-15 15-15h15v-30h-60z" data-original="#000000" class="active-path" data-old_color="#000000" fill="#EE204D"/><path d="m332 151h30v30h-30z" data-original="#000000" class="active-path" data-old_color="#000000" fill="#EE204D"/><path d="m272 151h30v30h-30z" data-original="#000000" class="active-path" data-old_color="#000000" fill="#EE204D"/><path d="m302 211h30v30h-30z" data-original="#000000" class="active-path" data-old_color="#000000" fill="#EE204D"/><path d="m242 211h30v30h-30z" data-original="#000000" class="active-path" data-old_color="#000000" fill="#EE204D"/><path d="m362 211h30v30h-30z" data-original="#000000" class="active-path" data-old_color="#000000" fill="#EE204D"/></g></g> </svg>
