<?xml version="1.0"?>
<svg xmlns="http://www.w3.org/2000/svg" xmlns:xlink="http://www.w3.org/1999/xlink" version="1.1" id="Layer_1" x="0px" y="0px" viewBox="0 0 512 512" style="enable-background:new 0 0 512 512;" xml:space="preserve" width="512px" height="512px"><g><g>
	<g>
		<g>
			<path d="M27.755,299.136c0.213-0.021,4.032-0.448,4.245-0.469l449.664,0.171c0.192,0.021,2.368,0.277,2.581,0.299     c0.277,0.021,0.555,0.021,0.832,0.021c0.149,0,0.32,0.021,0.427,0c5.888,0,10.667-4.779,10.667-10.667     c0-2.155-0.619-4.139-1.707-5.803l-25.131-81.6V74.667c0-29.397-23.915-53.333-53.333-53.333H96     c-29.419,0-53.333,23.936-53.333,53.333v126.421l-25.941,84.288c-1.045,3.371-0.363,7.061,1.856,9.792     C20.8,297.899,24.235,299.371,27.755,299.136z M74.667,192h18.325l9.941-39.765C106.517,137.963,119.296,128,133.995,128h68.672     c17.643,0,32,14.357,32,32v32h42.667v-32c0-17.643,14.357-32,32-32h68.672c14.699,0,27.477,9.963,31.061,24.235L419.008,192     h18.325c5.888,0,10.667,4.779,10.667,10.667s-4.779,10.667-10.667,10.667h-18.667c-1.131,3.2-2.603,6.272-4.757,9.045     c-6.123,7.808-15.317,12.288-25.237,12.288h-79.339c-13.888,0-25.621-8.939-30.037-21.333h-46.592     c-4.416,12.395-16.149,21.333-30.037,21.333h-79.339c-9.92,0-19.115-4.48-25.237-12.288c-2.155-2.752-3.627-5.845-4.757-9.045     H74.667c-5.888,0-10.667-4.779-10.667-10.667S68.779,192,74.667,192z" data-original="#000000" class="active-path" data-old_color="#000000" fill="#EE204D"/>
			<path d="M480,320H32c-17.643,0-32,14.357-32,32v128c0,5.888,4.779,10.667,10.667,10.667h42.667C59.221,490.667,64,485.888,64,480     v-32h384v32c0,5.888,4.779,10.667,10.667,10.667h42.667c5.888,0,10.667-4.779,10.667-10.667V352C512,334.357,497.643,320,480,320     z" data-original="#000000" class="active-path" data-old_color="#000000" fill="#EE204D"/>
		</g>
	</g>
</g></g> </svg>
