<svg id="Capa_1" enable-background="new 0 0 512 512" height="512" viewBox="0 0 512 512" width="512" xmlns="http://www.w3.org/2000/svg"><g id="XMLID_1630_"><g id="XMLID_1313_"><path id="XMLID_1317_" d="m502 492h-492c-5.523 0-10 4.477-10 10s4.477 10 10 10h492c5.523 0 10-4.477 10-10s-4.477-10-10-10z"/><path id="XMLID_1318_" d="m290.987 438c0 5.523 4.477 10 10 10h201.013c5.523 0 10-4.477 10-10s-4.477-10-10-10h-201.013c-5.523 0-10 4.477-10 10z"/><path id="XMLID_1320_" d="m10 448h201c5.523 0 10-4.477 10-10s-4.477-10-10-10h-201c-5.523 0-10 4.477-10 10s4.477 10 10 10z"/><path id="XMLID_1324_" d="m85.393 295.5c1.852 3.208 5.213 5.001 8.669 5.001 1.696 0 3.416-.432 4.991-1.341l39.206-22.636-6.504 24.273c-1.43 5.335 1.736 10.818 7.071 12.248.867.232 1.738.343 2.595.343 4.415 0 8.456-2.947 9.653-7.414l11.68-43.592 23.034-13.299 60.212 34.764v26.598l-31.912 31.912c-3.905 3.905-3.905 10.237 0 14.143 3.905 3.905 10.237 3.905 14.143 0l17.769-17.771v45.271c0 5.523 4.477 10 10 10s10-4.477 10-10v-45.271l17.769 17.769c1.953 1.953 4.512 2.929 7.071 2.929s5.119-.976 7.071-2.929c3.905-3.905 3.905-10.237 0-14.143l-31.911-31.911v-26.451l60.338-34.836 22.907 13.226 11.68 43.592c1.197 4.468 5.237 7.414 9.653 7.414.856 0 1.728-.111 2.595-.343 5.334-1.429 8.5-6.913 7.071-12.248l-6.504-24.273 39.206 22.636c1.575.909 3.294 1.341 4.991 1.341 3.456 0 6.817-1.793 8.669-5.001 2.762-4.783 1.123-10.899-3.66-13.66l-39.206-22.635 24.274-6.504c5.334-1.429 8.5-6.913 7.071-12.248-1.43-5.334-6.91-8.503-12.248-7.071l-43.592 11.68-22.907-13.226v-69.673l22.907-13.226 43.592 11.68c.867.232 1.738.343 2.595.343 4.415 0 8.456-2.947 9.653-7.414 1.43-5.335-1.736-10.818-7.071-12.248l-24.274-6.504 39.206-22.635c4.783-2.761 6.422-8.877 3.66-13.66s-8.877-6.423-13.66-3.66l-39.206 22.636 6.504-24.273c1.43-5.335-1.736-10.818-7.071-12.248-5.336-1.431-10.818 1.736-12.248 7.071l-11.68 43.592-23.034 13.299-60.211-34.764v-26.597l31.912-31.912c3.905-3.905 3.905-10.237 0-14.143-3.905-3.905-10.237-3.905-14.143 0l-17.769 17.77v-45.271c0-5.523-4.477-10-10-10s-10 4.477-10 10v45.271l-17.769-17.769c-3.905-3.905-10.237-3.905-14.143 0-3.905 3.905-3.905 10.237 0 14.143l31.912 31.911v26.744l-60.084 34.69-23.161-13.372-11.68-43.592c-1.43-5.334-6.915-8.503-12.248-7.071-5.334 1.429-8.5 6.913-7.071 12.248l6.504 24.273-39.207-22.636c-4.784-2.76-10.899-1.123-13.66 3.66-2.762 4.783-1.123 10.899 3.66 13.66l39.206 22.635-24.274 6.504c-5.334 1.429-8.5 6.913-7.071 12.248 1.197 4.468 5.237 7.414 9.653 7.414.856 0 1.728-.111 2.595-.343l43.592-11.68 23.161 13.372v69.38l-23.161 13.372-43.592-11.68c-5.335-1.43-10.819 1.736-12.248 7.071-1.43 5.335 1.736 10.818 7.071 12.248l24.274 6.504-39.206 22.635c-4.782 2.761-6.422 8.877-3.66 13.66zm120.395-57.963 40.212-23.217v46.432zm60.212 23.362v-46.579l40.339 23.289zm50.338-40.61-40.338-23.289 40.339-23.289v46.578zm-10.126-63.826-40.212 23.217v-46.432zm-60.212-23.069v46.286l-40.085-23.143zm-50.084 40.463 40.084 23.143-40.085 23.143v-46.286z"/><path id="XMLID_1348_" d="m256 428c-2.63 0-5.21 1.07-7.07 2.93s-2.93 4.44-2.93 7.07 1.07 5.21 2.93 7.07 4.44 2.93 7.07 2.93 5.21-1.07 7.07-2.93 2.93-4.44 2.93-7.07-1.07-5.21-2.93-7.07-4.44-2.93-7.07-2.93z"/></g></g></svg>