<?xml version="1.0"?>
<svg xmlns="http://www.w3.org/2000/svg" xmlns:xlink="http://www.w3.org/1999/xlink" xmlns:svgjs="http://svgjs.com/svgjs" version="1.1" width="512" height="512" x="0" y="0" viewBox="0 0 512 512" style="enable-background:new 0 0 512 512" xml:space="preserve" class=""><g><g xmlns="http://www.w3.org/2000/svg"><g><path d="m436.092 344.716c7.155-19.745 10.788-40.829 10.788-62.794v-203.58c0-3.156-1.49-6.127-4.02-8.015-2.529-1.888-5.801-2.47-8.827-1.572-61.823 18.356-160.115 3.788-179.764-61.631-1.27-4.229-5.161-7.123-9.575-7.124-.001 0-.001 0-.002 0-4.413 0-8.305 2.894-9.576 7.12-19.674 65.42-117.977 79.991-179.792 61.635-3.025-.898-6.297-.315-8.827 1.572-2.529 1.888-4.019 4.858-4.019 8.015v66.925c0 5.522 4.477 10 10 10s10-4.478 10-10v-54.025c34.643 7.655 73.883 6.416 107.48-3.682 34.3-10.309 60.09-28.78 74.731-53.08 14.633 24.298 40.418 42.771 74.714 53.08 33.595 10.1 72.834 11.336 107.477 3.682v190.68c0 17.83-2.658 34.977-7.914 51.13-6.468-3.444-13.377-6.167-20.622-8.055 4.286-13.612 6.462-28.048 6.462-43.076v-154.2c0-2.746-1.129-5.371-3.123-7.26s-4.682-2.882-7.418-2.726c-55.74 3.021-109.217-12.569-143.047-41.699-3.75-3.228-9.297-3.23-13.047-.002-33.858 29.132-87.331 44.724-143.051 41.701-2.743-.146-5.424.837-7.418 2.726s-3.123 4.514-3.123 7.26v154.201c0 21.284 4.082 40.5 12.469 58.727 26.395 57.688 94.281 97.912 143.048 123.149 1.441.746 3.019 1.119 4.596 1.119s3.153-.373 4.594-1.118c12.341-6.383 23.569-12.57 34.029-18.742 2.212 7.119 5.245 13.88 8.982 20.178-14.326 8.38-30.019 16.82-47.608 25.603-127.651-63.712-182.211-126.36-182.211-208.916v-46.855c0-5.522-4.477-10-10-10s-10 4.478-10 10v46.855c0 50.714 18.615 94.706 56.907 134.492 31.385 32.607 76.153 62.653 140.888 94.556 1.394.687 2.907 1.03 4.42 1.03 1.516 0 3.032-.345 4.427-1.033 20.625-10.183 38.772-19.912 55.212-29.605 17.411 18.826 42.33 30.638 69.963 30.638 52.508 0 95.227-42.634 95.227-95.038 0-28.887-12.984-54.801-33.43-72.246zm-320.865-12.408c-7.165-15.568-10.647-32.05-10.647-50.386v-143.853c25.049.38 50.119-2.731 73.105-9.095 25.88-7.164 48.379-18.067 67.007-32.46 18.617 14.392 41.11 25.297 66.989 32.46 22.991 6.363 48.061 9.471 73.126 9.095v143.853c0 14.321-2.147 27.505-6.526 40.092-1.322-.055-2.649-.089-3.985-.089-10.885 0-21.347 1.837-31.098 5.209-6.325-25.257-22.381-47.359-44.523-61.355 9.932-12.044 15.905-27.455 15.905-44.233 0-38.463-31.351-69.754-69.886-69.754s-69.887 31.291-69.887 69.754c0 16.771 5.968 32.177 15.894 44.219-29.264 18.434-47.542 50.729-47.542 85.691v20.937c-11.581-12.266-21.314-25.621-27.932-40.085zm79.58-110.762c0-27.435 22.379-49.754 49.887-49.754 27.507 0 49.886 22.319 49.886 49.754 0 27.418-22.379 49.725-49.886 49.725-27.508 0-49.887-22.307-49.887-49.725zm49.885 222.095c-25.555-13.406-55.8-30.882-81.533-52.489v-39.696c0-29.974 16.774-57.521 43.175-71.668 11.02 7.249 24.201 11.484 38.359 11.484 14.157 0 27.335-4.233 38.354-11.481 21.555 11.589 36.921 32.334 41.613 56.097-27.324 16.723-45.592 46.809-45.592 81.075 0 2.411.092 4.801.27 7.167-10.59 6.441-22.004 12.871-34.646 19.511zm129.603 48.359c-41.48 0-75.227-33.662-75.227-75.038s33.747-75.037 75.227-75.037 75.227 33.661 75.227 75.037-33.746 75.038-75.227 75.038z" fill="#e42d29" data-original="#000000" style="" class=""/><path d="m414.646 382.914c-4.23-3.553-10.538-3.002-14.089 1.228l-37.86 45.089-15.859-13.436c-4.213-3.568-10.525-3.049-14.094 1.166-3.57 4.214-3.048 10.523 1.166 14.094l23.522 19.928c1.813 1.536 4.105 2.37 6.463 2.37.282 0 .564-.012.847-.036 2.65-.225 5.102-1.496 6.812-3.533l44.318-52.78c3.554-4.231 3.004-10.538-1.226-14.09z" fill="#e42d29" data-original="#000000" style="" class=""/><path d="m52.478 200.167c5.523 0 10-4.478 10-10v-.028c0-5.522-4.477-9.985-10-9.985s-10 4.491-10 10.014 4.477 9.999 10 9.999z" fill="#e42d29" data-original="#000000" style="" class=""/></g></g></g></svg>
