<svg preserveAspectRatio="xMidYMid meet" data-bbox="47 20.001 106 159.999" xmlns="http://www.w3.org/2000/svg" width="200" height="200" viewBox="47 20.001 106 159.999" data-type="color" role="presentation" aria-hidden="true">
    <g>
        <path fill="#A1642F" d="M128.372 164.841l.343 8.581h13.836s8.874 3.925.915 4.691c-3.396.327-11.983-.408-19.853-.288a2.223 2.223 0 01-2.26-2.181l-.185-9.429 7.204-1.374z" data-color="1"></path>
        <path fill="#D8D5D4" d="M149.641 179.833H118.08v-2.407h31.561v2.407z" data-color="2"></path>
        <path d="M149.412 168.616c0 1.895-1.46 3.432-3.259 3.432-1.8 0-3.259-1.537-3.259-3.432s1.46-3.432 3.259-3.432c1.8 0 3.259 1.537 3.259 3.432z" fill="#D8D5D4" data-color="2"></path>
        <path d="M140.664 168.616c0 1.895-1.46 3.432-3.259 3.432-1.8 0-3.259-1.537-3.259-3.432s1.46-3.432 3.259-3.432c1.8 0 3.259 1.537 3.259 3.432z" fill="#D8D5D4" data-color="2"></path>
        <path fill="#D8D5D4" d="M130.787 180h19.197v-2.631c0-3.681-3.01-6.693-6.69-6.693h-12.579c.001 0 .165 9.231.072 9.324z" data-color="2"></path>
        <path d="M147.011 175.08c0 .41-.307.744-.686.744-.379 0-.686-.333-.686-.744 0-.41.307-.744.686-.744.379 0 .686.333.686.744z" fill="#000000" data-color="3"></path>
        <path d="M141.751 175.08c0 .41-.307.744-.686.744-.379 0-.686-.333-.686-.744 0-.41.307-.744.686-.744.379 0 .686.333.686.744z" fill="#000000" data-color="3"></path>
        <path opacity=".2" d="M146.153 166.379c.303 0 .59.069.851.19-.875.276-1.518 1.121-1.518 2.133 0 .916.524 1.702 1.273 2.048a2.002 2.002 0 01-.607.104c-1.173 0-2.124-1.002-2.124-2.237.001-1.236.952-2.238 2.125-2.238z" fill="#000000" data-color="3"></path>
        <path opacity=".2" d="M137.577 166.379c.303 0 .59.069.851.19-.875.276-1.518 1.121-1.518 2.133 0 .916.524 1.702 1.273 2.048a2.002 2.002 0 01-.607.104c-1.173 0-2.124-1.002-2.124-2.237.001-1.236.952-2.238 2.125-2.238z" fill="#000000" data-color="3"></path>
        <path fill="#F9C00B" d="M99.212 48.144s15.437-1.373 14.751 17.161 6.861 19.564 6.861 19.564l10.292 1.03v7.551s-28.816 4.462-31.218-2.746c-2.401-7.207-.686-42.56-.686-42.56z" data-color="4"></path>
        <path opacity=".1" d="M99.212 48.144s15.437-1.373 14.751 17.161 6.861 19.564 6.861 19.564l10.292 1.03v7.551s-28.816 4.462-31.218-2.746c-2.401-7.207-.686-42.56-.686-42.56z" fill="#000000" data-color="3"></path>
        <path d="M138.683 96.28l-38.441.946v13.042l35.677-2.059 2.764-11.929z" fill="#4B8C6D" data-color="5"></path>
        <path fill="#A1642F" d="M128.715 92.764s1.372-4.634-8.748-4.29v6.621l8.576-.443.172-1.888z" data-color="1"></path>
        <path fill="#D8D5D4" d="M110.681 179.467l4.282-.422c-.021-.212-2.112-21.384-4.668-37.855-2.253-14.52-10.037-17.569-16.17-17.569v4.305c6.566.001 10.464 4.555 11.918 13.925 2.538 16.353 4.618 37.405 4.638 37.616z" data-color="2"></path>
        <path fill="#D8D5D4" d="M59.934 179.102c.02-.211 2.101-21.267 4.637-37.616 1.454-9.37 5.353-13.925 11.918-13.925v-4.305c-6.133.001-13.916 3.049-16.17 17.569-2.555 16.47-4.646 37.643-4.667 37.855l4.282.422z" data-color="2"></path>
        <path fill="#A1642F" d="M90.7 38.399l-1.355 9.727s-7.919 7.056-8.065-2.653l2.286-10.143 7.134 3.069z" data-color="1"></path>
        <path fill="#4B8C6D" d="M60.791 99.628s-5.832 29.517 21.612 25.742h35.334l.686 42.217h13.036s23.671-54.573 6.518-63.497c0 0 .686-2.059-21.955-2.059l-55.231-2.403z" data-color="5"></path>
        <path opacity=".2" d="M90.751 38.364l-1.354 9.478c-2.15-2.646-3.716-6.149-4.552-10.182l-.452-2.178 6.358 2.882z" fill="#000000" data-color="3"></path>
        <path opacity=".1" d="M138.683 96.452l-38.441.945-5.103 9.911 42.195-.343 1.349-10.513z" fill="#000000" data-color="3"></path>
        <path fill="#F9C00B" d="M81.202 45.399S58.046 48.831 57.36 59.471c-.686 10.64-10.292 46.679 21.955 47.708 4.41.141 28.816 0 28.816 0l-.273-17.522-.414-26.068s1.544-17.504-17.324-17.504c.002 0-4.115 8.237-8.918-.686z" data-color="4"></path>
        <path d="M153 71.112l-5.417 23.682h-22.642l5.832-23.682H153z" fill="#D8D5D4" data-color="2"></path>
        <path opacity=".1" d="M75.542 70.111s5.973 23.648 32.317 19.546l.273 17.522H79.315l-3.773-37.068z" fill="#000000" data-color="3"></path>
        <path fill="#A1642F" d="M95.692 29.421c.171 1.977-.479 4.246-1.074 5.868-.396 1.079-.882 2.153-1.706 3.024-2.403 2.54-6.63 1.66-8.212-1.403-.857-1.659-.825-3.501-.642-5.254.151-1.446.412-2.926 1.307-4.127 1.136-1.526 3.291-2.44 5.485-2.327 3.441.177 4.651 2.017 4.842 4.219z" data-color="1"></path>
        <path fill="#F9C00B" d="M65.593 50.204s-16.466.343-9.262 35.695c0 0-.686 23.683 22.984 21.28l42.195-12.013-.686-10.297s-42.881 9.267-43.911 2.059c-1.029-7.208-1.372-16.818-1.372-16.818s4.804-20.936-9.948-19.906z" data-color="4"></path>
        <path d="M70.053 127.522h47.684v-4.305H70.053c-6.559 0-10.457-4.731-11.917-14.463-1.245-8.308-2.298-16.798-3.317-25.007-1.085-8.743-2.206-17.783-3.566-26.662L47 57.738c1.351 8.818 2.469 17.827 3.549 26.54 1.022 8.237 2.079 16.754 3.332 25.116 2.247 14.983 10.035 18.128 16.172 18.128z" fill="#000000" data-color="3"></path>
        <path d="M94.169 30.673s11.057-.649 7.876-5.499-11.045-7.44-15.719-2.56c0 0-12.221 3.302-3.378 14.937.187.246.383.495.589.749 0 0 .58-7.274 4.269-6.617 0-.002-.235-6.707 6.363-1.01z" fill="#000000" data-color="3"></path>
        <path fill="#D8D5D4" d="M147.583 96.654l-38.765.343v-2.42h38.765v2.077z" data-color="2"></path>
        <path fill="#A1642F" d="M88.12 133.836l-5.374 2.517-1.029 2.059s-1.587 18.534-2.959 10.64l-2.134-13.649a4.27 4.27 0 012.077-3.755l6.675-3.99 2.744 6.178z" data-color="1"></path>
        <path fill="#4B8C6D" d="M139.802 96.676c8.174 3.308 7.134 12.822.233 17.368-14.065 9.267-50.772 23.339-50.772 23.339l-6.861-10.64 38.078-25.741c4.859-3.285 12.123-6.581 18.202-4.721.392.119.765.251 1.12.395z" data-color="5"></path>
        <path opacity=".1" d="M118.423 135.667l-.686-10.297 25.043-13.386-24.357 23.683z" fill="#000000" data-color="3"></path>
        <path fill="#A1642F" d="M84.15 34.537l2.94.786a1.585 1.585 0 001.936-1.12 1.586 1.586 0 00-1.12-1.936l-2.94-.786a1.585 1.585 0 00-1.936 1.12 1.586 1.586 0 001.12 1.936z" data-color="1"></path>
        <path fill="#D8D5D4" d="M82.675 158.86l-14.849-27.863 2.123-1.133 14.849 27.863-2.123 1.133z" data-color="2"></path>
        <path d="M93.945 148.883c.853 1.585.193 3.598-1.476 4.496-1.668.899-3.713.342-4.566-1.243-.854-1.586-.193-3.599 1.475-4.497 1.669-.899 3.713-.342 4.567 1.244z" fill="#D8D5D4" data-color="2"></path>
        <path d="M89.829 141.16c.853 1.585.193 3.598-1.476 4.496-1.668.899-3.713.342-4.566-1.243-.854-1.586-.193-3.599 1.475-4.497 1.669-.899 3.713-.342 4.567 1.244z" fill="#D8D5D4" data-color="2"></path>
        <path fill="#D8D5D4" d="M73.657 142.294l9.032 16.948 2.321-1.238c3.247-1.732 4.486-5.807 2.755-9.055l-5.918-11.105s-8.065 4.488-8.19 4.45z" data-color="2"></path>
        <path d="M85.959 153.35c.179.334.031.762-.33.956-.362.194-.8.08-.98-.253-.179-.334-.03-.762.33-.956.362-.194.8-.08.98.253z" fill="#000000" data-color="3"></path>
        <path d="M83.483 148.706c.18.334.032.762-.33.956-.362.194-.8.08-.98-.253-.178-.334-.03-.762.331-.956.362-.194.8-.08.98.253z" fill="#000000" data-color="3"></path>
        <path opacity=".2" d="M92.899 149.451c.143.268.217.554.233.841-.656-.643-1.703-.812-2.596-.336-.808.431-1.254 1.264-1.207 2.088a1.995 1.995 0 01-.377-.487c-.552-1.036-.116-2.347.974-2.928 1.09-.582 2.421-.214 2.973.822z" fill="#000000" data-color="3"></path>
        <path opacity=".2" d="M88.864 141.88c.143.268.217.554.233.841-.656-.643-1.703-.812-2.596-.336-.808.431-1.254 1.264-1.207 2.088a1.995 1.995 0 01-.377-.487c-.552-1.036-.116-2.347.974-2.928 1.09-.583 2.421-.214 2.973.822z" fill="#000000" data-color="3"></path>
        <path opacity=".3" d="M124.884 96.882l-16.066.114v-2.42h16.181c-.001.001-.115 1.963-.115 2.306z" fill="#000000" data-color="3"></path>
        <path opacity=".1" d="M130.773 71.112l1.144.029-6.518 25.799-.515-.058.114-2.305 5.775-23.465z" fill="#000000" data-color="3"></path>
        <path d="M79.873 89.096l.256-.56c-7.571-3.458-3.304-21.092-3.26-21.269l-.597-.148c-.011.045-1.124 4.594-1.253 9.526-.171 6.617 1.507 10.922 4.854 12.451z" fill="#000000" data-color="3"></path>
        <path d="M139.898 113.766l.276.55-18.182 9.096-.275-.55 18.181-9.096z" fill="#000000" data-color="3"></path>
        <path d="M111.22 107.09l.344.51-24.7 16.649-.343-.51 24.7-16.648z" fill="#000000" data-color="3"></path>
        <path d="M84.214 114.195c.073-.128 1.761-3.152.609-5.319-.625-1.177-1.951-1.851-3.94-2.004l-.047.613c1.764.136 2.923.701 3.444 1.678.995 1.868-.584 4.7-.6 4.728l.534.304z" fill="#000000" data-color="3"></path>
        <path d="M93.874 33.443c0-.769.625-1.394 1.393-1.394s1.394.625 1.394 1.394a1.394 1.394 0 01-2.787 0zm.614 0a.78.78 0 101.559 0 .78.78 0 00-1.559 0z" fill="#000000" data-color="3"></path>
        <path d="M87.927 33.328a1.395 1.395 0 012.788 0 1.395 1.395 0 01-2.788 0zm.615 0a.78.78 0 101.559 0 .78.78 0 00-1.559 0z" fill="#000000" data-color="3"></path>
        <path d="M90.214 33.386h.615c0-.396.672-.837 1.637-.837s1.637.441 1.637.837h.615c0-.814-.989-1.451-2.251-1.451s-2.253.637-2.253 1.451z" fill="#000000" data-color="3"></path>
        <path d="M120.772 84.56l.106.606-22.87 4.007-.106-.606 22.87-4.006z" fill="#000000" data-color="3"></path>
    </g>
</svg>